<?xml version="1.0" encoding="utf-8"?>
<!-- Generator: Adobe Illustrator 25.1.0, SVG Export Plug-In . SVG Version: 6.00 Build 0)  -->
<svg version="1.1" id="Layer_1" xmlns="http://www.w3.org/2000/svg" xmlns:xlink="http://www.w3.org/1999/xlink" x="0px" y="0px"
	 viewBox="0 0 678 465.7" style="enable-background:new 0 0 678 465.7;" xml:space="preserve">
<style type="text/css">
	.st0{fill:#FFFFFF;stroke:#124395;stroke-width:16.0002;stroke-linecap:round;stroke-linejoin:round;stroke-miterlimit:4.0001;}
	.st1{fill:#FFFFFF;stroke:#124395;stroke-width:16;stroke-linecap:round;stroke-linejoin:round;}
	.st2{fill:#FFFFFF;stroke:#E07837;stroke-width:16;stroke-linecap:round;stroke-linejoin:round;}
	.st3{fill:#FFFFFF;stroke:#124395;stroke-width:15.9993;stroke-linecap:round;stroke-linejoin:round;stroke-miterlimit:3.9998;}
</style>
<g id="Layer_2_1_">
	<g id="Layer_1-2">
		
			<ellipse transform="matrix(0.3827 -0.9239 0.9239 0.3827 107.5378 251.4556)" class="st0" cx="241.9" cy="45.3" rx="37.2" ry="37.2"/>
		<path class="st1" d="M216.6,259.1l31.4-82.8l30.9,40.6c5,6.6,13.3,9.6,21.4,7.9l68.8-14.8c10.4-2.2,18.5-11.4,18-22.1
			c-0.6-11.8-10.6-20.8-22.4-20.2c-1.1,0.1-2.2,0.2-3.3,0.4l-56.8,12.2l-42.7-56.1c-9.1-12-23.3-19-38.3-19h-96.3
			c-7.7,0-14.7,4.1-18.5,10.8l-35.5,76c-6,10.1-2.7,23.1,7.4,29.1s23.1,2.7,29.1-7.4c0.2-0.3,0.3-0.5,0.5-0.8l29.4-65.1H183
			l-67.5,178.3H29.3c-11.7-0.3-21.5,9.1-21.7,20.8c-0.3,11.7,9.1,21.5,20.8,21.7c0.3,0,0.6,0,0.9,0h108.8c8.8,0,16.7-5.4,19.9-13.7
			l23.2-60.2l64.7,55.5l30.2,86.8c3.9,11.1,16,17,27.1,13.1s17-16,13.1-27.1l-37-106c-1.3-3.5-3.4-6.7-6.3-9.2L216.6,259.1z"/>
		<path class="st2" d="M504.4,45.7c0,20.8-16.9,37.7-37.7,37.7c-20.8,0-37.7-16.9-37.7-37.7S445.8,8,466.7,8l0,0
			C487.5,8,504.4,24.9,504.4,45.7L504.4,45.7z"/>
		<path class="st2" d="M441,262.6l31.8-83.9l31.3,41.2c4.1,5.4,10.4,8.5,17.2,8.5c1.5,0,3-0.2,4.5-0.5l69.8-15
			c10.6-2.3,18.8-11.6,18.2-22.4c-0.6-11.9-10.8-21.1-22.7-20.4c-1.1,0.1-2.2,0.2-3.4,0.4l-57.6,12.4L486.9,126
			c-9.2-12.2-23.6-19.3-38.9-19.3h-97.6c-7.8,0-15,4.2-18.8,11l-36,77c-5.7,10.4-1.9,23.6,8.6,29.3c10.2,5.6,23.1,2,29-8l29.8-66
			h43.9l-68.5,180.8H251c-11.9,0-21.6,9.7-21.6,21.6s9.7,21.5,21.6,21.6h110.4c9,0,17-5.5,20.2-13.9l23.5-61l65.6,56.3l30.6,88
			c4.3,11.1,16.8,16.7,27.9,12.4c10.6-4.1,16.2-15.7,12.8-26.6l-37.5-107.5c-1.3-3.6-3.4-6.8-6.3-9.3L441,262.6z"/>
		<path class="st1" d="M441,262.6l31.8-83.9l31.3,41.2c4.1,5.4,10.4,8.5,17.2,8.5c1.5,0,3-0.2,4.5-0.5l69.8-15
			c10.6-2.3,18.8-11.6,18.2-22.4c-0.6-11.9-10.8-21.1-22.7-20.4c-1.1,0.1-2.2,0.2-3.4,0.4l-57.6,12.4L486.9,126
			c-9.2-12.2-23.6-19.3-38.9-19.3h-97.6c-7.8,0-15,4.2-18.8,11l-36,77c-5.7,10.4-1.9,23.6,8.6,29.3c10.2,5.6,23.1,2,29-8l29.8-66
			h43.9l-68.5,180.8H251c-11.9,0-21.6,9.7-21.6,21.6s9.7,21.5,21.6,21.6h110.4c9,0,17-5.5,20.2-13.9l23.5-61l65.6,56.3l30.6,88
			c4.3,11.1,16.8,16.7,27.9,12.4c10.6-4.1,16.2-15.7,12.8-26.6l-37.5-107.5c-1.3-3.6-3.4-6.8-6.3-9.3L441,262.6z"/>
		<path class="st1" d="M504.4,45.7c0,20.8-16.9,37.7-37.7,37.7c-20.8,0-37.7-16.9-37.7-37.7S445.8,8,466.7,8l0,0
			C487.5,8,504.4,24.9,504.4,45.7L504.4,45.7z"/>
		
			<rect x="560.5" y="242" transform="matrix(0.9777 -0.2098 0.2098 0.9777 -45.0633 134.5941)" class="st3" width="102.7" height="75.4"/>
	</g>
</g>
</svg>
