<?xml version="1.0" encoding="utf-8"?>
<!-- Generator: Adobe Illustrator 25.1.0, SVG Export Plug-In . SVG Version: 6.00 Build 0)  -->
<svg version="1.1" id="Layer_1" xmlns="http://www.w3.org/2000/svg" xmlns:xlink="http://www.w3.org/1999/xlink" x="0px" y="0px"
	 viewBox="0 0 414.3 426" style="enable-background:new 0 0 414.3 426;" xml:space="preserve">
<style type="text/css">
	.st0{fill:none;stroke:#124395;stroke-width:16;stroke-linecap:round;stroke-linejoin:round;}
	.st1{fill:#FFFFFF;stroke:#124395;stroke-width:16;stroke-linecap:round;stroke-linejoin:round;}
</style>
<g id="Layer_2_1_">
	<g id="Layer_1-2">
		<path class="st0" d="M180.4,233.4C85.2,233.4,8,150.4,8,47.9h223.3"/>
		<path class="st0" d="M233.9,233.4c95.2,0,172.4-83.1,172.4-185.5H183"/>
		<path class="st1" d="M66.8,8c0,113.6,46.9,213.9,118.6,274.9c12.4,10.9,30.9,10.9,43.3,0c71.8-61,118.7-161.4,118.7-274.9H66.8z"
			/>
		<path class="st0" d="M207.1,156.9L165,187.6c-2.1,1.5-4.9,1.1-6.4-1c-0.9-1.2-1.1-2.8-0.7-4.2l16.2-49.5L132,102.5
			c-2.1-1.5-2.5-4.4-1-6.5c0.9-1.2,2.3-1.9,3.7-1.9l52.1,0.1l16-49.6c0.8-2.4,3.4-3.8,5.8-3c1.4,0.5,2.5,1.6,3,3l16,49.6l52.1-0.1
			c2.6,0,4.6,2.1,4.6,4.6c0,1.5-0.7,2.9-1.9,3.7L240.1,133l16.2,49.5c0.8,2.4-0.5,5-3,5.8c-1.4,0.5-3,0.2-4.2-0.7L207.1,156.9z"/>
		<line class="st0" x1="207.1" y1="291.1" x2="207.1" y2="389.1"/>
		<line class="st0" x1="109.4" y1="418" x2="313.7" y2="418"/>
		<line class="st0" x1="138" y1="389.1" x2="285.1" y2="389.1"/>
	</g>
</g>
</svg>
