<?xml version="1.0" encoding="utf-8"?>
<!-- Generator: Adobe Illustrator 25.1.0, SVG Export Plug-In . SVG Version: 6.00 Build 0)  -->
<svg version="1.1" id="Layer_1" xmlns="http://www.w3.org/2000/svg" xmlns:xlink="http://www.w3.org/1999/xlink" x="0px" y="0px"
	 viewBox="0 0 552.8 552.3" style="enable-background:new 0 0 552.8 552.3;" xml:space="preserve">
<style type="text/css">
	.st0{fill:#124395;}
</style>
<path class="st0" d="M72.9,437.6C-16.3,359-24.8,222.9,53.8,133.7c20.8-23.5,46.4-42.3,75.2-54.9c5.3-2.1,11.4,0.5,13.5,5.8
	c2,5.1-0.2,10.8-5.1,13.2C38.8,141-6,255.7,37.1,354.2c9.7,22.2,23.5,42.4,40.6,59.5c8.9,8.9,18.6,16.9,29,23.9H72.9z"/>
<path class="st0" d="M481.6,552.3c-5.7,0-10.4-4.6-10.4-10.3c0-2.8,1.1-5.4,3-7.4l43.1-43.2H340.5c10.5-6.1,20.5-13.1,29.9-20.8h147
	L486.8,440l-12.5-12.5c-4.1-4.1-4.1-10.6,0-14.7s10.6-4.1,14.7,0l60.8,60.9c0.4,0.4,0.8,0.9,1.1,1.4c1.3,1.8,1.9,3.8,1.9,6
	c0,0.7-0.1,1.3-0.2,2c-0.3,1.3-0.8,2.4-1.5,3.5l-0.2,0.3l-0.1,0.2c-0.3,0.5-0.7,0.9-1.1,1.3l-60.8,60.9
	C487,551.2,484.3,552.3,481.6,552.3z"/>
<path class="st0" d="M36.3,491.4c-5.6,0.1-10.2-4.3-10.4-9.8c0-1.1,0.1-2.3,0.5-3.4c1.2-4.4,5.3-7.5,9.9-7.5h179
	c107.4,0,194.5-87.1,194.5-194.6c0-51.6-20.5-101.1-57-137.5c-30.8-30.7-71-50.2-114.2-55.4l-24.4-2.9l44.6,44.6
	c3.8,4.3,3.4,10.9-0.9,14.7c-3.9,3.5-9.8,3.5-13.7,0l-57-57l-1.1-0.6c-3-1.5-5-4.4-5.5-7.7v-0.4l-0.1-0.6c-0.6-3.4,0.4-6.8,2.9-9.2
	L244.2,3c4.1-4.1,10.6-4.1,14.7,0c4.1,4.1,4.1,10.6,0,14.7l-42.5,42.4l18.1,1.6C352.9,72.4,440.3,177,429.7,295.4
	c-9.9,110.9-102.8,195.9-214.1,196l-11.7-1l0.2,1H36.3z"/>
</svg>
