<?xml version="1.0" encoding="utf-8"?>
<!-- Generator: Adobe Illustrator 25.1.0, SVG Export Plug-In . SVG Version: 6.00 Build 0)  -->
<svg version="1.1" id="Layer_1" xmlns="http://www.w3.org/2000/svg" xmlns:xlink="http://www.w3.org/1999/xlink" x="0px" y="0px"
	 viewBox="0 0 606 452.5" style="enable-background:new 0 0 606 452.5;" xml:space="preserve">
<style type="text/css">
	.st0{fill:none;stroke:#124395;stroke-width:16;stroke-linecap:round;stroke-linejoin:round;}
	.st1{fill:#FFFFFF;}
</style>
<g id="Layer_2_1_">
	<g id="Layer_1-2">
		<path class="st0" d="M115.3,277.4h114.2c26.7,0,45.8,14.2,45.8,31.6s-19.1,31.6-45.9,31.6H133c-36.9,0-61.7,19.5-61.7,43.7
			S96.1,428,133,428h305.5"/>
		<path class="st1" d="M438.5,440.3c-14.1,0.1-27.1-7.4-34-19.7L304,246.6c-0.3-0.5-0.5-1-0.8-1.5c-17.4-30.6-23.7-66.1-18.1-100.8
			C295.7,76.5,353,22,421.3,14.6c5.7-0.6,11.4-0.9,17.1-0.9c85.6,0,155.3,69.7,155.3,155.3c0,26.7-6.9,52.9-20.1,76.1
			c-0.2,0.5-0.5,1.1-0.8,1.6l-100.5,174C465.6,432.8,452.5,440.4,438.5,440.3z"/>
		<path class="st1" d="M438.5,25.9c78.9-0.1,143,63.8,143,142.7c0,25.2-6.6,50-19.3,71.8l0.1,0.1l-100.5,174
			c-7.4,12.9-23.9,17.4-36.9,10c-4.1-2.4-7.6-5.8-10-10l-100.5-174l0.1-0.1c-16.5-28.5-22.7-61.8-17.5-94.3
			c9.9-62.8,62.2-112.6,125.4-119.4C427.9,26.2,433.2,25.9,438.5,25.9 M438.5,1.4c-6.2,0-12.3,0.3-18.4,1
			c-73.7,7.9-135.5,66.8-147,140c-6,37.2,0.8,75.4,19.2,108.2c0.3,0.7,0.7,1.5,1.1,2.2l100.5,174c14.2,24.7,45.8,33.1,70.4,18.9
			c7.8-4.5,14.4-11,18.9-18.9l100.5-174c0.4-0.7,0.8-1.5,1.2-2.2c13.9-24.9,21.2-53,21.3-81.5C606,76.6,530.9,1.4,438.5,1.4
			L438.5,1.4z"/>
		<path class="st0" d="M581.5,169c0-79-64-143.1-143.1-143.1c-5.3,0-10.6,0.3-15.8,0.9c-63.2,6.8-115.5,56.6-125.4,119.4
			c-5.2,32.5,0.9,65.8,17.5,94.3l-0.1,0.1l100.5,174c7.4,12.9,23.9,17.4,36.9,10c4.1-2.4,7.6-5.8,10-10l100.5-174l-0.1-0.1
			C574.9,218.7,581.5,194.1,581.5,169z"/>
		<path class="st0" d="M508.3,169c0,38.5-31.2,69.8-69.8,69.8s-69.8-31.2-69.8-69.8s31.2-69.8,69.8-69.8l0,0
			C477,99.2,508.3,130.5,508.3,169L508.3,169z"/>
		<path class="st1" d="M115,290.1c-10.6,0.1-20.4-5.6-25.7-14.8L26.4,166.2c-0.2-0.4-0.5-0.8-0.6-1.3C14.4,144.8,10.3,121.5,14,98.8
			c7-44.7,44.8-80.7,89.8-85.5c3.7-0.4,7.5-0.6,11.3-0.6c56.5-0.1,102.3,45.6,102.4,102.1c0,17.6-4.5,34.8-13.1,50.2
			c-0.2,0.4-0.4,0.8-0.6,1.3l-63,109.1C135.5,284.5,125.6,290.2,115,290.1z"/>
		<path class="st1" d="M115,25.3c49.5-0.1,89.6,40,89.7,89.5c0,15.8-4.1,31.3-12.1,45h0.1l-63,109.2c-4.7,8.1-15,10.9-23.2,6.2
			c-2.6-1.5-4.7-3.6-6.2-6.2l-63-109.1h0.1c-10.4-17.8-14.2-38.7-11-59.1c6.2-39.4,39-70.6,78.6-74.8
			C108.4,25.6,111.7,25.4,115,25.3 M115,0c-4.2,0-8.4,0.2-12.6,0.7C39.3,7.6-6.3,64.4,0.7,127.4c1.7,15.2,6.3,29.9,13.8,43.2
			c0.3,0.6,0.6,1.2,1,1.8l63,109.1c11.7,20.2,37.5,27.2,57.8,15.5c6.4-3.7,11.8-9.1,15.5-15.5l63-109.1c0.4-0.6,0.7-1.2,1-1.9
			C246.6,115,226.5,45.1,171,14.3C153.8,4.9,134.6,0,115,0z"/>
		<path class="st0" d="M204.7,115c0-49.5-40.2-89.7-89.7-89.7c-3.3,0-6.6,0.2-9.9,0.5c-39.6,4.3-72.4,35.5-78.6,74.9
			c-3.3,20.4,0.6,41.3,11,59.1h-0.1l63,109.1c4.7,8.1,15,10.9,23.1,6.2c2.6-1.5,4.7-3.6,6.2-6.2l63-109.1h-0.1
			C200.6,146.2,204.7,130.7,204.7,115z"/>
		<path class="st0" d="M158.8,115c0,24.2-19.6,43.8-43.7,43.8c-24.2,0-43.8-19.6-43.8-43.7c0-24.2,19.6-43.8,43.7-43.8
			S158.8,90.8,158.8,115L158.8,115z"/>
	</g>
</g>
</svg>
