<svg xmlns="http://www.w3.org/2000/svg" viewBox="0 0 244.39 178.13">
  <g id="Layer_2" data-name="Layer 2">
    <g id="Layer_1-2" data-name="Layer 1">
      <g>
        <polygon points="99.03 156.71 159.03 156.71 159.03 157.13 99.03 178.13 99.03 156.71" style="fill: #1e3f76"/>
        <rect y="67.69" width="244.39" height="42.83" style="fill: #1c4692"/>
        <rect x="0.62" y="114.17" width="159.59" height="42.83" style="fill: #1c4692"/>
        <g>
          <path d="M9.25,89.22a14.77,14.77,0,0,1,1-5.41,15.47,15.47,0,0,1,3-4.81,14.81,14.81,0,0,1,4.86-3.46,15.54,15.54,0,0,1,6.47-1.29,15.25,15.25,0,0,1,7.55,1.8A11.64,11.64,0,0,1,37,80.82l-6.32,4.5A5.07,5.07,0,0,0,29.09,83a6.28,6.28,0,0,0-2.25-1.13,9.32,9.32,0,0,0-2.35-.31,6.34,6.34,0,0,0-3.08.7,6.19,6.19,0,0,0-2.12,1.84,8.25,8.25,0,0,0-1.23,2.55,10,10,0,0,0-.41,2.8,9.72,9.72,0,0,0,.47,3,8.22,8.22,0,0,0,1.36,2.57,6.33,6.33,0,0,0,2.18,1.76,6.61,6.61,0,0,0,2.91.64,8,8,0,0,0,2.33-.37,6.24,6.24,0,0,0,2.17-1.16,5,5,0,0,0,1.48-2.17l6.75,4a8.77,8.77,0,0,1-3,3.78,15.41,15.41,0,0,1-4.71,2.4,17.33,17.33,0,0,1-5.22.82,14,14,0,0,1-6.13-1.33,15.28,15.28,0,0,1-4.79-3.57,16.17,16.17,0,0,1-3.12-5A15.14,15.14,0,0,1,9.25,89.22Z" style="fill: #fff"/>
          <path d="M52,104.79a14.76,14.76,0,0,1-6.24-1.29A15,15,0,0,1,40.93,100a15.57,15.57,0,0,1-3.1-4.92,15.26,15.26,0,0,1-1.08-5.66,14.65,14.65,0,0,1,1.14-5.73,16.06,16.06,0,0,1,3.21-4.86A15,15,0,0,1,46,75.48a15.28,15.28,0,0,1,6.17-1.23,14.51,14.51,0,0,1,11,4.79A16.21,16.21,0,0,1,66.26,84a15.23,15.23,0,0,1,1.08,5.63,14.68,14.68,0,0,1-1.12,5.68A15.46,15.46,0,0,1,63,100.15a15.25,15.25,0,0,1-4.85,3.39A15,15,0,0,1,52,104.79ZM45.15,89.52a10.36,10.36,0,0,0,.42,3A8,8,0,0,0,46.85,95,6.19,6.19,0,0,0,49,96.8a7.44,7.44,0,0,0,6.17,0,6,6,0,0,0,2.15-1.85,8.47,8.47,0,0,0,1.23-2.59,10.52,10.52,0,0,0,.4-2.9,10.13,10.13,0,0,0-.42-2.93A8,8,0,0,0,57.24,84a5.83,5.83,0,0,0-2.16-1.76A7,7,0,0,0,52,81.59a6.56,6.56,0,0,0-3.07.67,6.42,6.42,0,0,0-2.15,1.81,7.83,7.83,0,0,0-1.25,2.54A10.59,10.59,0,0,0,45.15,89.52Z" style="fill: #fff"/>
          <path d="M77.78,89.78v14.8H69.5V74.46H76l12.1,15.32V74.46h8.27v30.12H89.74Z" style="fill: #fff"/>
          <path d="M124.45,81.67H115.8v22.91h-8.28V81.67h-8.7V74.46h25.63Z" style="fill: #fff"/>
          <path d="M127,104.58V74.46h13.84a9.25,9.25,0,0,1,4.07.89,10.06,10.06,0,0,1,3.22,2.4,11.19,11.19,0,0,1,2.11,3.37,10.21,10.21,0,0,1,.74,3.78,11.06,11.06,0,0,1-.51,3.35,10.24,10.24,0,0,1-1.49,3,10.42,10.42,0,0,1-2.33,2.31L153,104.58h-9.08l-5.3-9.25h-3.35v9.25Zm8.28-16.46h5.22a1.53,1.53,0,0,0,1-.38,2.94,2.94,0,0,0,.79-1.1,4.39,4.39,0,0,0,.32-1.74,3.87,3.87,0,0,0-.36-1.77,3,3,0,0,0-.9-1.08,1.8,1.8,0,0,0-1-.38h-5Z" style="fill: #fff"/>
          <path d="M163.74,74.46H173l9.59,30.12h-8.4l-1.56-5.89h-8.51l-1.56,5.89h-8.44Zm7.43,18.71-2.8-10.61-2.8,10.61Z" style="fill: #fff"/>
          <path d="M180.84,89.22a14.77,14.77,0,0,1,1-5.41,15.26,15.26,0,0,1,3-4.81,14.81,14.81,0,0,1,4.86-3.46,15.6,15.6,0,0,1,6.47-1.29,15.26,15.26,0,0,1,7.56,1.8,11.76,11.76,0,0,1,4.79,4.77l-6.32,4.5A5.07,5.07,0,0,0,200.68,83a6.45,6.45,0,0,0-2.25-1.13,9.34,9.34,0,0,0-2.36-.31,6.33,6.33,0,0,0-3.07.7,6.1,6.1,0,0,0-2.12,1.84,7.83,7.83,0,0,0-1.23,2.55,10,10,0,0,0-.41,2.8,9.72,9.72,0,0,0,.47,3,8,8,0,0,0,1.36,2.57,6.33,6.33,0,0,0,2.18,1.76,6.55,6.55,0,0,0,2.91.64,8,8,0,0,0,2.33-.37,6.29,6.29,0,0,0,2.16-1.16,5,5,0,0,0,1.49-2.17l6.75,4a8.92,8.92,0,0,1-3,3.78,15.41,15.41,0,0,1-4.71,2.4,17.42,17.42,0,0,1-5.22.82,13.94,13.94,0,0,1-6.13-1.33,15.33,15.33,0,0,1-4.8-3.57,16.56,16.56,0,0,1-3.12-5A15.33,15.33,0,0,1,180.84,89.22Z" style="fill: #fff"/>
          <path d="M235.62,81.67H227v22.91h-8.27V81.67H210V74.46h25.63Z" style="fill: #fff"/>
        </g>
        <g>
          <path d="M37.71,120.74v30.13H29.44v-11.8H19.34v11.8H11.06V120.74h8.28v11.12h10.1V120.74Z" style="fill: #fff"/>
          <path d="M40.68,150.87V120.74H49v30.13Z" style="fill: #fff"/>
          <path d="M51.92,150.87V120.74H65.76a9.4,9.4,0,0,1,4.07.89,10.06,10.06,0,0,1,3.22,2.4,11,11,0,0,1,2.1,3.37,10.07,10.07,0,0,1,.75,3.78,11,11,0,0,1-.51,3.35,10.24,10.24,0,0,1-1.49,2.95,10.42,10.42,0,0,1-2.33,2.31l6.36,11.08H68.85l-5.3-9.25H60.2v9.25ZM60.2,134.4h5.22a1.53,1.53,0,0,0,1-.38,2.86,2.86,0,0,0,.79-1.1,4.33,4.33,0,0,0,.32-1.74,3.67,3.67,0,0,0-.37-1.76,3,3,0,0,0-.89-1.09,1.8,1.8,0,0,0-1-.38h-5Z" style="fill: #fff"/>
          <path d="M80.05,150.87V120.74h8.28v30.13Z" style="fill: #fff"/>
          <path d="M99.57,136.06v14.81H91.3V120.74h6.45l12.09,15.32V120.74h8.27v30.13h-6.57Z" style="fill: #fff"/>
          <path d="M135,151.08a15.23,15.23,0,0,1-5.58-1,13.75,13.75,0,0,1-4.69-3.06,14.23,14.23,0,0,1-3.2-4.88,17.2,17.2,0,0,1-1.17-6.55,14.6,14.6,0,0,1,1.19-5.9,15.15,15.15,0,0,1,8.19-8,15.9,15.9,0,0,1,6.06-1.14,15.54,15.54,0,0,1,7.39,1.76,11.55,11.55,0,0,1,4.92,4.81l-6.15,4.71a7,7,0,0,0-2.68-2.86,7.13,7.13,0,0,0-3.77-1.08,6.26,6.26,0,0,0-2.72.59,6.61,6.61,0,0,0-2.14,1.66,7.27,7.27,0,0,0-1.4,2.52,10,10,0,0,0-.49,3.2,9.64,9.64,0,0,0,.51,3.23,7.45,7.45,0,0,0,1.42,2.48,6.23,6.23,0,0,0,2.19,1.61,6.71,6.71,0,0,0,2.84.58,7.92,7.92,0,0,0,3.82-1,11.32,11.32,0,0,0,3.31-2.82V148A11.33,11.33,0,0,1,135,151.08Zm7.42-10.31h-5.56v-5.94h12.39v16h-6.83Z" style="fill: #fff"/>
        </g>
        <rect y="21.42" width="244.39" height="42.83" style="fill: #fff"/>
        <g>
          <path d="M64.63,30.42h8.06l8.37,26.27H73.73l-1.36-5.14H65l-1.36,5.14H56.23ZM71.1,46.74l-2.44-9.25-2.44,9.25Z" style="fill: #333"/>
          <path d="M92.34,56.88A13.07,13.07,0,0,1,87.48,56a11.8,11.8,0,0,1-4.09-2.66,12.49,12.49,0,0,1-2.8-4.26,15.19,15.19,0,0,1-1-5.71,12.74,12.74,0,0,1,1-5.15A13.29,13.29,0,0,1,83.48,34a13.05,13.05,0,0,1,4.27-2.79,13.76,13.76,0,0,1,5.29-1,13.52,13.52,0,0,1,6.44,1.53,10,10,0,0,1,4.29,4.2l-5.36,4.11a6.09,6.09,0,0,0-2.33-2.5,6.25,6.25,0,0,0-3.29-.94,5.28,5.28,0,0,0-2.37.52,5.56,5.56,0,0,0-1.87,1.44,6.45,6.45,0,0,0-1.22,2.2,8.61,8.61,0,0,0-.43,2.8,8.32,8.32,0,0,0,.45,2.81,6.21,6.21,0,0,0,1.24,2.16A5.4,5.4,0,0,0,90.49,50a6,6,0,0,0,2.48.5,6.84,6.84,0,0,0,3.33-.87,9.91,9.91,0,0,0,2.89-2.46v7A9.87,9.87,0,0,1,92.34,56.88Zm6.48-9H94V42.71h10.8v14h-6Z" style="fill: #333"/>
          <path d="M107.14,56.69V30.42h7.22V56.69Z" style="fill: #333"/>
          <path d="M117,56.69V30.42h7.21v20h11.91v6.29Z" style="fill: #333"/>
          <path d="M156.87,50.4v6.29H138.15V30.42h18.39v6.29H145.36v3.7h9.55v5.85h-9.55V50.4Z" style="fill: #333"/>
        </g>
        <g>
          <path d="M19.29,55.84a8.76,8.76,0,0,1-3.8-.84,9.71,9.71,0,0,1-3.09-2.31,11,11,0,0,1-2.79-7.38,10.67,10.67,0,0,1,2.79-7.26,9.68,9.68,0,0,1,3.11-2.26A9,9,0,0,1,19.38,35a9.37,9.37,0,0,1,5,1.23,7.85,7.85,0,0,1,3,3.26l-2.49,1.8a5.81,5.81,0,0,0-2.32-2.52,6.48,6.48,0,0,0-3.25-.84,5.6,5.6,0,0,0-2.65.61,6.1,6.1,0,0,0-2,1.66,7.87,7.87,0,0,0-1.29,2.41,9.06,9.06,0,0,0,0,5.76,7.49,7.49,0,0,0,1.4,2.39,6.49,6.49,0,0,0,2.11,1.61,6,6,0,0,0,2.61.58,6.44,6.44,0,0,0,3.24-.86,9.77,9.77,0,0,0,2.85-2.56v3.3A8.2,8.2,0,0,1,19.29,55.84Zm6-8.15H21V45.25H28V55.69H25.27Z" style="fill: #333"/>
          <path d="M39.33,55.84a9,9,0,0,1-4-.87,9.91,9.91,0,0,1-3.12-2.36A11,11,0,0,1,29.5,45.4a10.48,10.48,0,0,1,.75-3.93,11.07,11.07,0,0,1,2.11-3.34,10.21,10.21,0,0,1,3.13-2.32A9,9,0,0,1,39.42,35a8.73,8.73,0,0,1,4,.9,10.06,10.06,0,0,1,3.09,2.4,11,11,0,0,1,2,3.37,10.81,10.81,0,0,1,0,7.73,10.36,10.36,0,0,1-2.07,3.33A10,10,0,0,1,43.29,55,9.18,9.18,0,0,1,39.33,55.84ZM32.83,45.4a8.92,8.92,0,0,0,.45,2.83,7.55,7.55,0,0,0,1.31,2.4,6.27,6.27,0,0,0,2.06,1.67,5.91,5.91,0,0,0,2.74.61,5.85,5.85,0,0,0,2.78-.64,6.22,6.22,0,0,0,2.06-1.72,8.15,8.15,0,0,0,1.28-2.42,8.75,8.75,0,0,0,.43-2.73,8.41,8.41,0,0,0-.46-2.81,7.85,7.85,0,0,0-1.34-2.4,6.38,6.38,0,0,0-2.07-1.66,5.81,5.81,0,0,0-2.68-.61,5.93,5.93,0,0,0-2.8.63,6.38,6.38,0,0,0-2,1.72,7.5,7.5,0,0,0-1.28,2.4A8.76,8.76,0,0,0,32.83,45.4Z" style="fill: #333"/>
        </g>
        <g>
          <path d="M175.11,37.11h2.94l2.46,6.77L183,37.11h3l-3.41,8.82,3,7.33L191.71,37h3.42L187,56.91h-2.75L180.54,48l-3.75,8.91H174L165.92,37h3.42l6.22,16.23,3-7.33Z" style="fill: #333"/>
          <path d="M196,56.91V37h3.17V56.91Z" style="fill: #333"/>
          <path d="M216.77,39.8h-6.61V56.91H207V39.8h-6.64V37h16.41Z" style="fill: #333"/>
          <path d="M234.3,37V56.91h-3.14V48.14h-10v8.77H218V37h3.16v8.31h10V37Z" style="fill: #333"/>
        </g>
        <polygon points="60 21.42 0 21.42 0 21 60 0 60 21.42" style="fill: #ddd"/>
      </g>
    </g>
  </g>
</svg>
